# xmcd
#
# Track frame offsets: 
#        150
#        53111
#        96295
#        136363
#        170348
#        219006
#        248562
#
# Disc length: 3781 seconds
#
# Revision: 2
# Processed by: cddbd v1.5.2PL0 Copyright (c) Steve Scherf et al.
# Submitted via: ExactAudioCopy v0.99pb5
#
DISCID=550ec307
DTITLE=Ka Ma Quartet - A Love Supreme - Universal Tone
DYEAR=2016
DGENRE=Jazz
TTITLE0=Acknowledgement
TTITLE1=Resolution
TTITLE2=Pursuance
TTITLE3=Psalm
TTITLE4=The Creator Has A Masterplan
TTITLE5=Universal Tone
TTITLE6=My Zen For You
EXTD=YEAR: 2016
EXTT0=
EXTT1=
EXTT2=
EXTT3=
EXTT4=
EXTT5=
EXTT6=
PLAYORDER=
